<?xml version="1.0" encoding="UTF-8"?>
<svg id="Capa_2" xmlns="http://www.w3.org/2000/svg" version="1.1" viewBox="0 0 249.4 249.4">
  <!-- Generator: Adobe Illustrator 29.2.1, SVG Export Plug-In . SVG Version: 2.1.0 Build 116)  -->
  <defs>
    <style>
      .st0 {
        fill: #fff;
      }
    </style>
  </defs>
  <g id="Capa_1-2">
    <rect class="st0" y="0" width="249.4" height="249.4" rx="32.4" ry="32.4"/>
  </g>
  <g id="Capa_21">
    <g id="Capa_1-21">
      <path d="M183.3,193.6c-.9,0-1.8.5-2.3,1.3l-14.8,24.7,4.5,2.7,7-11.7h11l7,11.7,4.5-2.7-14.8-24.7c-.5-.8-1.3-1.3-2.3-1.3h.2ZM181,205.3l2.3-3.9,2.3,3.9h-4.6Z"/>
      <path d="M125.9,198.2c-5.5-5.4-14.4-5.4-19.9,0-1.3,1.3-2.3,2.9-2.9,4.6-1.2,3.3-1.2,6.8,0,10.1.6,1.7,1.6,3.3,2.9,4.6,5.5,5.4,14.4,5.4,19.9,0,1.3-1.3,2.3-2.9,2.9-4.6,1.2-3.3,1.2-6.8,0-10.1-.6-1.7-1.6-3.3-2.9-4.6ZM123.8,211.1c-.3,1-.8,1.9-1.6,2.6l-.2.2c-3.4,3.3-8.8,3.3-12.2,0,0,0,0-.1-.2-.2-.7-.7-1.2-1.6-1.6-2.6-.8-2.1-.8-4.4,0-6.5.3-1,.8-1.9,1.6-2.6,0,0,0-.1.2-.2,3.4-3.2,8.8-3.2,12.2,0,0,0,0,.1.2.2.7.7,1.2,1.6,1.6,2.6.8,2.1.8,4.4,0,6.5h0Z"/>
      <path d="M92.3,196.7c-1.5-1.4-3.8-2.3-6.8-2.8-1.3-.2-2.6-.3-3.9-.3h-7.6v28.4h5.3v-6.8h2.3c1.3,0,2.6-.1,3.8-.3,3-.5,5.3-1.4,6.8-2.8,4.3-3.6,4.8-10,1.1-14.3-.3-.4-.7-.8-1.1-1.1h0ZM88.9,208.1s0,0-.2.1c-1.3,1.2-4.9,1.7-7.2,1.7h-2.3v-11.1h2.3c2.2,0,5.8.5,7.1,1.7,0,0,0,.1.2.2,2,1.8,2.2,4.8.5,6.8,0,.2-.3.3-.5.5h0Z"/>
      <path d="M144,193.6h-5.3v25.3c0,1.5,1.2,2.6,2.6,2.6h19.3v-5.3h-16.6v-22.7h0Z"/>
      <path d="M151.2,145.1l26.7,26.7c1.3,1.3,3.4,1.3,4.7,0s1-1.5,1-2.3v-37.7h-6.6v29.7l-26.7-26.7c-1.3-1.3-3.4-1.3-4.7,0s-1,1.5-1,2.3v35.6h6.6v-27.6Z"/>
      <path d="M100.2,174.3l10.6-17.7h15.7l10.4,17.4,5.7-3.4-21.1-35.2c-.9-1.6-3-2.1-4.5-1.1-.5.3-.9.7-1.1,1.1l-21.3,35.5,5.7,3.4h0ZM118.7,143.5l3.9,6.5h-7.7l3.9-6.5h-.1Z"/>
      <path d="M201,156.7h15.8l10.4,17.3,5.7-3.4-21.1-35.2c-.9-1.6-3-2.1-4.5-1.1-.5.3-.9.7-1.1,1.1l-21.3,35.5,5.7,3.4,10.5-17.6h0ZM208.9,143.5l3.9,6.6h-7.9l3.9-6.6h.1Z"/>
      <path d="M76.4,173c5.2,0,10.2-2.1,13.8-5.8,5.8-5.7,5.9-17.2,5.8-18.7v-14.5h-6.6v14.6c0,2.6-.6,10.8-3.9,13.9,0,0,0,.1-.2.2-4.9,4.9-12.9,5-17.8,0h0s0-.2-.2-.2c-1.5-1.4-2.7-4.3-3.4-8-.3-1.9-.5-3.9-.5-5.9v-14.6h-6.6v14.5c0,1.4,0,13,5.8,18.7,3.6,3.7,8.6,5.8,13.8,5.8h0Z"/>
      <path d="M50,133.8h-6.6v55.1c0,2.6-.6,10.8-3.9,13.9,0,0,0,.1-.2.2-4.9,4.9-12.9,5-17.8,0h0s-.1-.1-.2-.2c-.4-.4-.8-.9-1-1.4-1.6-2.9-1.5-6.5.3-9.3,1.8-3,5-4.8,8.4-4.8h11.9v-6.6h-11.9c-5.8,0-11.1,3-14.1,8-2.9,4.8-3.1,10.8-.5,15.8.6,1.1,1.3,2.2,2.2,3.1,7.4,7.6,19.6,7.8,27.2.4,0-.1.3-.3.4-.4,5.8-5.7,5.9-17.2,5.8-18.7v-55h0Z"/>
      <rect x="52.8" y="180.7" width="180.8" height="6.6"/>
      <path d="M176.7,36.3h-13.6c-7.6,0-14.8-3-20.1-8.3h-.1c-2.1-2.3-5.1-3.5-8.1-3.5h-18.3c-3,0-6,1.2-8.1,3.4h0c-5.3,5.4-12.6,8.4-20.1,8.4h-13.6c-8.2,0-14.8,6.6-14.8,14.8v40.5c0,10.6,8.6,19.1,19.1,19.1h39.3c5.9,0,12.6-.2,18.2-2.4,12-4.6,23.4-17.5,19.3-39.7-.4-1.6-.9-3.1-1.5-4.6-5.7-12.5-18.5-19.2-33.2-17.4-7.3.9-13.4,3.7-17.5,8.2-4.4,4.8-6.7,11.2-6.7,19.1,0,11.9,7.9,18.3,15.2,20.4,8.1,2.3,16.5-.2,19.9-5.9,2.9-4.9,3.2-8.9,2.3-12.1h0c-.1-.7-1-4.5-4.3-6.7-1.6-1-3.4-1.4-5.3-1.3-3.8,0-6.9,2.9-7,6.7,0,1.3.3,2.6,1,3.7,1.5,2.4,4.3,3.6,7,3.1-.3.7-.6,1.4-1,2.1-1.2,2-5.5,3.4-10.2,2-2.7-.7-8.9-3.4-8.9-12.1,0-13.9,9-17.9,16.6-18.8,11.1-1.3,20.2,3.3,24.4,12.4.4.8.7,1.7.9,2.6,4,21.4-9.6,28.5-13.9,30.1-4.8,1.9-11.9,1.8-17.6,1.8h-36.8c-5.8,0-10.5-4.7-10.5-10.5h0v-40.5c0-3.4,2.8-6.2,6.2-6.2h13.6c9.8,0,19.3-3.9,26.2-10.9h0c.5-.7,1.2-1,2-1h18.3c.8,0,1.5.3,2,.9h.1c6.9,7.1,16.4,11,26.2,11h13.6c3.4,0,6.2,2.8,6.2,6.2v40.5c0,5.8-4.7,10.5-10.5,10.5h-11.6v8.6h11.6c10.6,0,19.1-8.6,19.1-19.1v-40.5c0-8.2-6.6-14.8-14.8-14.8l-.2.2Z"/>
    </g>
  </g>
</svg>