<?xml version="1.0" encoding="UTF-8"?>
<svg id="Capa_2" data-name="Capa 2" xmlns="http://www.w3.org/2000/svg" width="667.5" height="273.52" viewBox="0 0 667.5 273.52">
  <g id="Capa_1-2" data-name="Capa 1">
    <g id="Capa_2-2" data-name="Capa 2">
      <g id="Capa_1-2" data-name="Capa 1-2">
        <path d="M515.61,186.84c-2.81,0-5.41,1.47-6.86,3.88l-44.73,74.57,13.73,8.23,21.23-35.41h33.27l21.24,35.41,13.72-8.23-44.72-74.57c-1.45-2.41-4.06-3.89-6.88-3.88ZM508.61,222.11l7-11.72,7,11.72h-14Z"/>
        <path d="M342.36,200.61c-16.64-16.39-43.36-16.39-60,0-3.93,3.91-6.89,8.68-8.66,13.93-3.59,9.85-3.59,20.64,0,30.49,1.75,5.26,4.71,10.05,8.63,13.97,16.64,16.39,43.36,16.39,60,0,3.95-3.93,6.92-8.72,8.69-14,3.59-9.85,3.59-20.64,0-30.49-1.77-5.24-4.74-10-8.66-13.9ZM335.99,239.54c-.93,2.95-2.54,5.64-4.7,7.86-.18.17-.3.29-.46.47-10.33,9.85-26.56,9.87-36.92.06-.16-.19-.34-.36-.52-.53-2.15-2.22-3.76-4.91-4.69-7.86-2.33-6.29-2.33-13.22,0-19.51.93-2.95,2.54-5.64,4.69-7.86.19-.16.36-.34.52-.53,10.34-9.79,26.53-9.79,36.87,0,.16.19.33.36.51.53,2.16,2.22,3.77,4.91,4.7,7.86,2.33,6.29,2.33,13.22,0,19.51h0Z"/>
        <path d="M241.06,196.26c-4.54-4.21-11.48-7.06-20.64-8.49-3.9-.61-7.84-.92-11.79-.93h-22.92v85.89h16v-20.47h7.09c3.89-.03,7.77-.35,11.62-.94,9.16-1.42,16.1-4.28,20.64-8.48,12.86-10.98,14.39-30.31,3.41-43.17-1.05-1.23-2.19-2.37-3.41-3.41h0ZM230.76,230.59c-.18.14-.35.29-.51.45-3.88,3.7-14.93,5.28-21.62,5.22h-6.92v-33.42h7c6.6-.06,17.65,1.51,21.53,5.21.18.17.36.33.55.48,6.09,5.31,6.73,14.55,1.42,20.64-.44.5-.91.98-1.42,1.42h-.03Z"/>
        <path d="M397.1,186.84h-16v76.43c0,4.42,3.58,8,8,8h58.22v-16h-50.22v-68.43Z"/>
        <path d="M418.67,40.29l80.71,80.71c3.91,3.9,10.24,3.9,14.14,0,1.87-1.87,2.93-4.42,2.93-7.07V0h-20v89.78L415.75,9.08c-3.9-3.91-10.23-3.92-14.14-.02-1.88,1.88-2.94,4.43-2.94,7.09v107.43h20V40.29Z"/>
        <path d="M264.92,128.52l32-53.43h47.38l31.46,52.47,17.16-10.29-63.67-106.27c-2.84-4.74-8.98-6.27-13.72-3.43-1.41.84-2.59,2.02-3.43,3.43l-64.34,107.24,17.16,10.28ZM320.65,35.59l11.69,19.5h-23.38l11.69-19.5Z"/>
        <path d="M569.01,75.45h47.81l31.25,52.11,17.18-10.29-63.76-106.27c-2.84-4.74-8.98-6.27-13.72-3.43-1.41.84-2.59,2.02-3.43,3.43l-64.31,107.24,17.15,10.28,31.83-53.07ZM592.92,35.59l11.9,19.86h-23.81l11.91-19.86Z"/>
        <path d="M193,124.63c15.68-.08,30.68-6.43,41.65-17.63,17.6-17.09,17.71-52,17.66-56.33V6.85h-20v44c.11,7.88-1.82,32.48-11.73,41.94-.21.19-.4.39-.58.61-14.85,14.91-38.97,14.96-53.88.12-.02-.02-.04-.04-.06-.06-.21-.23-.42-.46-.64-.67-4.57-4.36-8.17-13-10.14-24.26-1.01-5.84-1.54-11.75-1.59-17.68V6.85h-20v43.82c-.05,4.3.1,39.24,17.66,56.35,10.98,11.19,25.97,17.53,41.65,17.61Z"/>
        <path d="M113.25,6.15h-20v166.36c.09,7.9-1.88,32.55-11.73,42-.2.19-.4.4-.58.61-14.85,14.91-38.97,14.96-53.88.12-.02-.02-.04-.04-.06-.06-.21-.23-.42-.45-.64-.67-1.25-1.29-2.29-2.76-3.09-4.37-4.75-8.82-4.4-19.51.91-28,5.32-8.94,14.96-14.41,25.36-14.38h36.05v-20h-36.03c-17.42-.06-33.58,9.09-42.49,24.06-8.87,14.5-9.43,32.61-1.47,47.63,1.75,3.41,4.01,6.52,6.7,9.24,22.34,23.01,59.09,23.55,82.1,1.21.41-.4.81-.8,1.21-1.21,17.56-17.11,17.71-52,17.66-56.35l-.02-166.19Z"/>
        <rect x="121.54" y="147.74" width="545.96" height="20"/>
      </g>
    </g>
  </g>
</svg>