<?xml version="1.0" encoding="UTF-8"?>
<svg id="Capa_2" xmlns="http://www.w3.org/2000/svg" version="1.1" viewBox="0 0 59.1 59.1">
  <!-- Generator: Adobe Illustrator 29.2.1, SVG Export Plug-In . SVG Version: 2.1.0 Build 116)  -->
  <defs>
    <style>
      .st0 {
        fill: #fff;
      }
    </style>
  </defs>
  <g id="Capa_1-2">
    <rect y="0" width="59.1" height="59.1" rx="7" ry="7"/>
  </g>
  <path class="st0" d="M49.7,17.5h-5.2c-2.9,0-5.7-1.1-7.7-3.2h0c-.8-.9-1.9-1.3-3.1-1.3h-7c-1.2,0-2.3.5-3.1,1.3h0c-2,2.1-4.8,3.2-7.7,3.2h-5.2c-3.1,0-5.6,2.5-5.7,5.7v15.5c0,4,3.3,7.3,7.3,7.3h15c2.2,0,4.8,0,6.9-.9,4.6-1.8,8.9-6.7,7.4-15.2-.1-.6-.3-1.2-.6-1.7-2.2-4.8-7.1-7.3-12.7-6.7-2.8.3-5.1,1.4-6.7,3.1-1.7,1.8-2.5,4.3-2.5,7.3,0,4.5,3,7,5.8,7.8,3.1.9,6.3,0,7.6-2.2,1.1-1.9,1.2-3.4.9-4.6h0c0-.3-.4-1.7-1.7-2.5-.6-.4-1.3-.6-2-.5-1.4,0-2.6,1.1-2.7,2.6,0,.5.1,1,.4,1.4.6.9,1.6,1.4,2.7,1.2-.1.3-.2.5-.4.8-.5.8-2.1,1.3-3.9.8-1-.3-3.4-1.3-3.4-4.6,0-5.3,3.4-6.8,6.3-7.2,4.2-.5,7.7,1.3,9.3,4.8.1.3.3.6.3,1,1.5,8.2-3.7,10.9-5.3,11.5-1.8.7-4.5.7-6.7.7h-14c-2.2,0-4-1.8-4-4,0,0,0,0,0,0v-15.5c0-1.3,1.1-2.4,2.4-2.4h5.2c3.8,0,7.4-1.5,10-4.1h0c.2-.3.5-.4.8-.4h7c.3,0,.6.1.8.3h0c2.7,2.7,6.3,4.2,10,4.2h5.2c1.3,0,2.4,1.1,2.4,2.4v15.5c0,2.2-1.8,4-4,4h-4.4v3.3h4.4c4,0,7.3-3.3,7.3-7.3v-15.5c0-3.1-2.5-5.6-5.7-5.7Z"/>
</svg>